fd_7_states
version=1
nRows=19
nColumns=17
inDegrees=yes

# SIMM Motion File Header:
name fd_7_states
datacolumns 17
datarows 19
otherdata 1
range 0.385611 0.394613
endheader
time	/jointset/r_shoulder/r_shoulder_elev/value	/jointset/r_shoulder/r_shoulder_elev/speed	/jointset/r_elbow/r_elbow_flex/value	/jointset/r_elbow/r_elbow_flex/speed	/forceset/TRIlong/activation	/forceset/TRIlong/fiber_length	/forceset/TRIlat/activation	/forceset/TRIlat/fiber_length	/forceset/TRImed/activation	/forceset/TRImed/fiber_length	/forceset/BIClong/activation	/forceset/BIClong/fiber_length	/forceset/BICshort/activation	/forceset/BICshort/fiber_length	/forceset/BRA/activation	/forceset/BRA/fiber_length
      0.385611	    -15.306532	     48.997261	    108.697328	    278.654285	      0.021066	      0.166510	      0.207700	      0.109293	      0.204616	      0.104349	      0.969218	      0.085340	      0.331018	      0.084221	      0.021632	      0.061129
      0.386158	    -15.279591	     49.643119	    108.849502	    278.497300	      0.021058	      0.166580	      0.207879	      0.109344	      0.204789	      0.104400	      0.970067	      0.085199	      0.331673	      0.084081	      0.021620	      0.061066
      0.386808	    -15.247035	     50.415172	    109.030669	    278.308410	      0.021049	      0.166654	      0.208076	      0.109406	      0.204981	      0.104461	      0.971046	      0.085032	      0.332406	      0.083913	      0.021606	      0.060990
      0.387459	    -15.213977	     51.186341	    109.211711	    278.110687	      0.021040	      0.166775	      0.208259	      0.109467	      0.205158	      0.104523	      0.971993	      0.084865	      0.333093	      0.083746	      0.021593	      0.060914
      0.388110	    -15.180413	     51.967410	    109.392629	    277.923692	      0.021031	      0.166816	      0.208427	      0.109528	      0.205321	      0.104584	      0.972908	      0.084698	      0.333736	      0.083579	      0.021579	      0.060838
      0.388915	    -15.138182	     52.927401	    109.616319	    277.670543	      0.021020	      0.166910	      0.208617	      0.109604	      0.205506	      0.104660	      0.973999	      0.084492	      0.334475	      0.083372	      0.021562	      0.060745
      0.389435	    -15.110509	     53.546702	    109.760608	    277.500593	      0.021013	      0.166994	      0.208731	      0.109654	      0.205616	      0.104709	      0.974679	      0.084359	      0.334921	      0.083239	      0.021551	      0.060685
      0.389955	    -15.082513	     54.169985	    109.904809	    277.333206	      0.021006	      0.167041	      0.208837	      0.109703	      0.205718	      0.104758	      0.975341	      0.084225	      0.335344	      0.083105	      0.021541	      0.060624
      0.390008	    -15.079619	     54.233781	    109.919618	    277.315332	      0.021005	      0.167048	      0.208859	      0.109708	      0.205741	      0.104763	      0.975408	      0.084212	      0.335521	      0.083092	      0.021539	      0.060618
      0.390040	    -15.077875	     54.272188	    109.928531	    277.304562	      0.021005	      0.167052	      0.208947	      0.109711	      0.205830	      0.104766	      0.975448	      0.084204	      0.336437	      0.083083	      0.021539	      0.060614
      0.390072	    -15.076130	     54.310601	    109.937444	    277.293778	      0.021005	      0.167056	      0.209041	      0.109714	      0.205925	      0.104769	      0.975488	      0.084195	      0.337430	      0.083075	      0.021538	      0.060611
      0.390233	    -15.067387	     54.502754	    109.982004	    277.239552	      0.021002	      0.167076	      0.209506	      0.109729	      0.206398	      0.104784	      0.975688	      0.084154	      0.342324	      0.083033	      0.021535	      0.060592
      0.391037	    -15.023204	     55.466923	    110.204667	    276.953951	      0.020992	      0.167177	      0.211695	      0.109801	      0.208622	      0.104856	      0.976662	      0.083949	      0.365203	      0.082813	      0.021519	      0.060499
      0.391563	    -14.993859	     56.102750	    110.350302	    276.752316	      0.020985	      0.167239	      0.213011	      0.109848	      0.209959	      0.104903	      0.977279	      0.083814	      0.378890	      0.082662	      0.021508	      0.060438
      0.392292	    -14.952627	     56.988086	    110.552000	    276.451825	      0.020975	      0.167372	      0.214696	      0.109912	      0.211670	      0.104967	      0.978106	      0.083628	      0.396397	      0.082445	      0.021493	      0.060354
      0.393021	    -14.910742	     57.889239	    110.753480	    276.153828	      0.020966	      0.167419	      0.216234	      0.109977	      0.213230	      0.105032	      0.978902	      0.083442	      0.412403	      0.082222	      0.021479	      0.060269
      0.393552	    -14.879845	     58.541777	    110.899986	    275.920223	      0.020959	      0.167507	      0.217269	      0.110024	      0.214280	      0.105079	      0.979463	      0.083307	      0.423217	      0.082057	      0.021469	      0.060208
      0.394082	    -14.848599	     59.200585	    111.046369	    275.692172	      0.020952	      0.167554	      0.218237	      0.110071	      0.215261	      0.105126	      0.980009	      0.083172	      0.433394	      0.081891	      0.021458	      0.060147
      0.394613	    -14.817004	     59.858413	    111.192629	    275.459946	      0.020946	      0.167625	      0.219143	      0.110118	      0.216180	      0.105174	      0.980541	      0.083037	      0.442987	      0.081724	      0.021448	      0.060086
